<svg width="437.501" height="95.601" viewBox="0 0 437.501 95.601" xmlns="http://www.w3.org/2000/svg"><g id="svgGroup" stroke-linecap="round" fill-rule="evenodd" font-size="9pt" stroke="#000" stroke-width="0.25mm" fill="#000" style="stroke:#000;stroke-width:0.25mm;fill:#000"><path d="M 362.924 68.772 A 31.543 31.543 0 0 0 368.9 69.301 Q 373.374 69.301 377.057 68.332 A 20.315 20.315 0 0 0 387.1 62.451 Q 393.4 55.601 395.9 43.701 Q 396.4 41.401 397 37.151 Q 397.6 32.901 398.2 28.101 Q 398.8 23.301 399.15 19.101 Q 399.5 14.901 399.5 12.701 Q 399.5 11.013 399.259 9.523 A 14.339 14.339 0 0 0 398.4 6.401 A 5.674 5.674 0 0 0 398.372 6.333 Q 397.26 3.701 394.1 3.701 Q 392.2 3.701 390.4 4.551 A 10.659 10.659 0 0 0 389.694 4.916 A 8.932 8.932 0 0 0 387.4 6.751 A 6.731 6.731 0 0 0 387.247 6.929 Q 386.2 8.193 386.2 9.501 Q 386.2 10.201 386.5 10.801 L 387.2 12.201 A 20.157 20.157 0 0 1 388.707 15.63 A 25.485 25.485 0 0 1 389.75 20.101 A 60.155 60.155 0 0 1 389.971 21.802 A 67.119 67.119 0 0 1 390.4 29.501 Q 390.4 33.401 390 37.151 A 71.652 71.652 0 0 1 389.946 37.645 Q 389.751 39.362 389.491 40.895 A 43.159 43.159 0 0 1 388.9 43.801 A 26.013 26.013 0 0 1 387.581 47.922 A 19.444 19.444 0 0 1 383.5 54.151 A 11.579 11.579 0 0 1 380.699 56.229 Q 378.786 57.252 376.335 57.716 A 23.891 23.891 0 0 1 371.9 58.101 A 23.006 23.006 0 0 1 369.363 57.964 A 18.558 18.558 0 0 1 363.95 56.551 Q 360.4 55.001 358.35 51.551 Q 356.3 48.101 356.3 42.301 Q 356.3 38.101 356.65 33.951 Q 357 29.801 357.4 26.001 Q 357.9 22.501 358.15 19.501 Q 358.4 16.501 358.4 14.001 Q 358.4 11.601 358.1 9.251 A 13.309 13.309 0 0 0 358.096 9.218 Q 357.793 6.889 356.75 5.301 A 3.357 3.357 0 0 0 356.179 4.634 Q 355.54 4.063 354.606 3.842 A 5.651 5.651 0 0 0 353.3 3.701 Q 351.5 3.701 349.5 4.601 Q 347.5 5.501 346.05 6.751 A 6.29 6.29 0 0 0 345.525 7.256 Q 345.161 7.652 344.94 8.053 A 2.563 2.563 0 0 0 344.6 9.301 Q 344.6 9.888 345.032 10.745 A 8.85 8.85 0 0 0 345.4 11.401 A 22.997 22.997 0 0 1 345.705 11.902 A 19.814 19.814 0 0 1 348.4 19.801 Q 348.713 22.551 348.83 25.926 A 123.437 123.437 0 0 1 348.9 30.201 Q 348.9 31.801 348.8 33.801 Q 348.7 35.801 348.5 37.801 Q 348.3 39.901 348.15 42.101 Q 348 44.301 348 46.301 Q 348 53.183 349.74 57.942 A 16.812 16.812 0 0 0 353.2 63.751 A 15.359 15.359 0 0 0 356.979 66.683 Q 359.573 68.124 362.924 68.772 Z M 270.798 95.084 A 12.797 12.797 0 0 0 274.5 95.601 Q 279.2 95.601 283.5 92.951 A 28.606 28.606 0 0 0 286.11 91.133 A 32.566 32.566 0 0 0 291.3 86.001 A 64.402 64.402 0 0 0 294.802 81.397 A 81.934 81.934 0 0 0 299.05 74.551 Q 302.7 68.001 305.55 61.001 A 142.576 142.576 0 0 0 307.54 55.835 A 117.639 117.639 0 0 0 310.2 47.601 A 114.463 114.463 0 0 0 310.978 44.694 Q 311.571 42.35 311.981 40.265 A 56.905 56.905 0 0 0 312.6 36.501 A 16.594 16.594 0 0 0 312.639 36.218 Q 312.785 35.092 312.764 34.028 A 12.047 12.047 0 0 0 312.1 30.251 A 5.66 5.66 0 0 0 311.799 29.542 Q 310.701 27.401 308.1 27.401 Q 306.985 27.401 305.632 27.831 A 14.48 14.48 0 0 0 304.15 28.401 A 15.765 15.765 0 0 0 302.936 29.003 A 13.044 13.044 0 0 0 300.3 30.901 Q 298.7 32.401 298.7 34.101 Q 298.7 35.101 299.3 35.851 Q 299.9 36.601 300.9 37.801 Q 302.1 39.001 302.6 40.601 A 10.525 10.525 0 0 1 302.967 42.244 A 13.754 13.754 0 0 1 303.1 44.201 A 12.936 12.936 0 0 1 302.999 45.825 A 13.443 13.443 0 0 1 301.25 50.901 Q 299.4 54.101 296.5 56.101 A 12.907 12.907 0 0 1 295.587 56.677 A 10.293 10.293 0 0 1 290.4 58.101 A 3.83 3.83 0 0 1 289.459 57.995 Q 288.438 57.735 288.084 56.837 A 2.909 2.909 0 0 1 287.9 55.901 A 87.507 87.507 0 0 0 287.768 54.133 A 101.59 101.59 0 0 0 287.25 49.401 A 138.41 138.41 0 0 0 286.899 46.914 A 113.424 113.424 0 0 0 286.25 43.051 Q 285.872 41.022 285.518 39.538 A 35.141 35.141 0 0 0 285.2 38.301 Q 284.51 35.91 283.678 33.9 A 28.573 28.573 0 0 0 282.1 30.651 A 5.868 5.868 0 0 0 278.538 27.808 A 8.346 8.346 0 0 0 276.2 27.501 Q 272.8 27.501 270.8 29.701 A 7.426 7.426 0 0 0 269.081 32.997 A 10.549 10.549 0 0 0 268.8 35.501 A 8.722 8.722 0 0 0 268.806 35.813 Q 268.83 36.496 268.966 36.957 A 1.996 1.996 0 0 0 269.15 37.401 A 0.995 0.995 0 0 0 269.269 37.563 Q 269.673 38.015 270.7 38.101 A 9.661 9.661 0 0 1 271.696 38.267 Q 272.685 38.49 273.3 38.901 A 3.941 3.941 0 0 1 273.498 39.042 Q 273.922 39.363 274.298 39.825 A 6.786 6.786 0 0 1 274.9 40.701 A 18.458 18.458 0 0 1 275.151 41.072 Q 276.018 42.391 276.751 43.989 A 30.312 30.312 0 0 1 277.95 47.051 Q 279.2 50.801 280.05 54.801 A 73.36 73.36 0 0 1 280.763 58.626 A 53.513 53.513 0 0 1 281.2 62.101 A 19.63 19.63 0 0 0 281.267 62.619 Q 281.596 64.914 282.389 66.361 A 5.029 5.029 0 0 0 283.7 67.951 A 8.412 8.412 0 0 0 285.087 68.833 A 6.008 6.008 0 0 0 287.8 69.501 A 7.701 7.701 0 0 0 289.719 69.246 A 10.557 10.557 0 0 0 291.4 68.651 Q 293.3 67.801 295.5 65.901 Q 293.1 70.401 290.7 73.951 Q 288.3 77.501 286.6 79.401 Q 284.7 81.601 282.45 83.301 A 9.591 9.591 0 0 1 281.092 84.165 A 7.064 7.064 0 0 1 277.8 85.001 Q 277.083 85.001 276.485 84.85 A 3.531 3.531 0 0 1 274.95 84.051 A 9.511 9.511 0 0 1 274.503 83.618 A 10.516 10.516 0 0 1 273.1 81.801 A 3.115 3.115 0 0 0 272.882 81.483 A 3.548 3.548 0 0 0 272.3 80.901 A 1.256 1.256 0 0 0 272.1 80.771 Q 271.587 80.501 270.6 80.501 A 5.484 5.484 0 0 0 268.011 81.114 A 5.966 5.966 0 0 0 266.25 82.551 A 7.115 7.115 0 0 0 264.952 84.774 A 7.992 7.992 0 0 0 264.5 87.501 Q 264.5 91.201 267.45 93.401 A 10.723 10.723 0 0 0 270.798 95.084 Z M 418.6 69.301 Q 414.9 69.301 411.7 68.201 A 15.624 15.624 0 0 1 408.964 66.972 A 11.801 11.801 0 0 1 406.5 65.101 A 6.54 6.54 0 0 1 404.501 60.388 A 7.786 7.786 0 0 1 404.5 60.301 Q 404.5 58.801 405.25 57.451 A 2.47 2.47 0 0 1 407.014 56.163 A 3.605 3.605 0 0 1 407.7 56.101 A 3.676 3.676 0 0 1 408.715 56.25 Q 409.12 56.366 409.544 56.573 A 6.133 6.133 0 0 1 409.6 56.601 A 17.042 17.042 0 0 0 411.091 57.329 Q 411.935 57.696 412.93 58.04 A 35.25 35.25 0 0 0 414.2 58.451 A 20.133 20.133 0 0 0 419.883 59.299 A 22.492 22.492 0 0 0 420.1 59.301 A 20.941 20.941 0 0 0 423.206 59.081 A 15.518 15.518 0 0 0 426.3 58.301 A 7.49 7.49 0 0 0 427.385 57.806 Q 427.915 57.507 428.271 57.155 A 2.26 2.26 0 0 0 429 55.501 A 1.667 1.667 0 0 0 428.287 54.127 Q 427.993 53.901 427.576 53.723 A 5.523 5.523 0 0 0 426.95 53.501 A 20.787 20.787 0 0 0 425.753 53.194 Q 424.374 52.879 422.296 52.539 A 127.158 127.158 0 0 0 420.1 52.201 Q 416.8 51.601 413.7 50.801 Q 410.6 50.001 408.6 48.051 A 6.193 6.193 0 0 1 407.025 45.411 Q 406.72 44.434 406.634 43.255 A 13.141 13.141 0 0 1 406.6 42.301 A 13.56 13.56 0 0 1 408.17 36.017 A 16.413 16.413 0 0 1 408.65 35.151 A 14.793 14.793 0 0 1 412.224 31.118 A 19.397 19.397 0 0 1 414.8 29.401 Q 418.77 27.174 424.426 27.103 A 29.831 29.831 0 0 1 424.8 27.101 Q 427.9 27.101 430.8 27.801 Q 433.496 28.451 435.327 29.706 A 9.805 9.805 0 0 1 435.6 29.901 A 5.236 5.236 0 0 1 436.711 30.984 A 3.948 3.948 0 0 1 437.5 33.401 A 4.955 4.955 0 0 1 436.482 36.405 A 6.347 6.347 0 0 1 436.25 36.701 Q 435 38.201 433.35 39.151 A 10.639 10.639 0 0 1 432.466 39.61 Q 431.527 40.038 430.805 40.093 A 2.732 2.732 0 0 1 430.6 40.101 Q 429.8 40.101 428.7 39.001 Q 427 37.601 424.95 37.051 A 15.705 15.705 0 0 0 421.276 36.505 A 14.601 14.601 0 0 0 420.9 36.501 A 16.372 16.372 0 0 0 418.974 36.607 Q 417.264 36.81 416.05 37.401 A 5.16 5.16 0 0 0 415.242 37.881 Q 414.835 38.182 414.587 38.525 A 1.964 1.964 0 0 0 414.2 39.701 Q 414.2 41.001 415.75 41.801 Q 417.069 42.481 418.93 42.836 A 18.186 18.186 0 0 0 419.6 42.951 Q 421.9 43.301 424 43.601 A 38.276 38.276 0 0 1 427.704 44.286 Q 430.969 45.071 433.2 46.351 A 6.445 6.445 0 0 1 436.331 50.678 A 11.036 11.036 0 0 1 436.6 53.201 A 14.251 14.251 0 0 1 435.441 58.755 A 18.071 18.071 0 0 1 434.45 60.751 A 16.53 16.53 0 0 1 429.352 66.199 A 19.975 19.975 0 0 1 428.25 66.901 A 16.906 16.906 0 0 1 422.425 68.991 A 22.675 22.675 0 0 1 418.6 69.301 Z M 12.128 69.079 A 34.174 34.174 0 0 0 16.1 69.301 A 45.071 45.071 0 0 0 22.592 68.85 A 34.236 34.236 0 0 0 31.5 66.351 Q 38.2 63.401 42.8 58.151 Q 47.4 52.901 49.75 46.051 A 42.058 42.058 0 0 0 50.301 44.325 A 45.01 45.01 0 0 0 52.1 31.501 A 47.99 47.99 0 0 0 52.044 29.15 Q 51.822 24.634 50.732 20.865 A 23.883 23.883 0 0 0 44.95 10.651 A 23.396 23.396 0 0 0 33.552 4.239 A 34.226 34.226 0 0 0 25.3 3.301 Q 19.8 3.301 14.45 4.651 A 56.303 56.303 0 0 0 11.678 5.422 Q 9.994 5.94 8.564 6.514 A 25.929 25.929 0 0 0 5.8 7.801 Q 2.7 9.401 1.35 11.451 A 7.901 7.901 0 0 0 0.268 13.986 A 10.391 10.391 0 0 0 0 16.401 A 7.304 7.304 0 0 0 0.042 17.197 A 5.794 5.794 0 0 0 0.3 18.401 Q 0.6 19.301 1.5 19.301 A 2.23 2.23 0 0 0 1.743 19.287 Q 1.952 19.264 2.184 19.203 A 4.479 4.479 0 0 0 2.65 19.051 Q 3.3 18.801 4 18.501 A 45.755 45.755 0 0 1 4.204 20.043 A 55.717 55.717 0 0 1 4.45 22.801 Q 4.6 25.101 4.6 26.901 A 107.488 107.488 0 0 1 4.466 32.167 A 137.633 137.633 0 0 1 3.9 39.501 A 298.478 298.478 0 0 1 3.347 44.474 A 243.826 243.826 0 0 1 2.3 52.201 Q 1.7 55.601 1.7 59.001 Q 1.7 61.084 2.192 62.823 A 11.55 11.55 0 0 0 2.2 62.851 A 6.327 6.327 0 0 0 2.919 64.464 A 7.615 7.615 0 0 0 4.2 66.001 Q 6.2 67.901 9.3 68.601 A 27.191 27.191 0 0 0 12.128 69.079 Z M 159.971 68.907 A 7.378 7.378 0 0 0 162.7 69.401 Q 167.2 69.401 171.45 66.201 Q 175.7 63.001 179.1 57.801 Q 182.5 52.601 184.5 46.601 A 42.132 42.132 0 0 0 185.64 42.529 A 33.792 33.792 0 0 0 186.5 35.101 Q 186.5 32.201 185.7 29.801 A 4.456 4.456 0 0 0 185.622 29.585 Q 185.005 28.009 183.393 27.57 A 5.302 5.302 0 0 0 182 27.401 A 7.319 7.319 0 0 0 181.078 27.461 Q 179.715 27.635 178.05 28.301 A 14.588 14.588 0 0 0 177.353 28.6 A 12.531 12.531 0 0 0 174.15 30.701 A 6.015 6.015 0 0 0 173.241 31.723 A 3.935 3.935 0 0 0 172.5 34.001 A 3.533 3.533 0 0 0 172.504 34.155 A 2.846 2.846 0 0 0 173.05 35.751 Q 173.6 36.501 174.8 37.801 A 7.225 7.225 0 0 1 175.726 39.053 A 8.52 8.52 0 0 1 176.55 41.001 Q 177.1 42.901 177.1 44.601 A 13.003 13.003 0 0 1 177.088 45.158 A 10.968 10.968 0 0 1 175.75 50.051 Q 174.4 52.501 172.35 54.301 A 19.735 19.735 0 0 1 170.66 55.634 A 15.23 15.23 0 0 1 168.2 57.051 Q 166.953 57.615 165.883 57.844 A 6.618 6.618 0 0 1 164.5 58.001 A 5.301 5.301 0 0 1 164.343 57.998 Q 163.679 57.979 163.256 57.789 A 1.259 1.259 0 0 1 162.75 57.401 A 1.921 1.921 0 0 1 162.5 56.945 Q 162.394 56.674 162.344 56.339 A 4.342 4.342 0 0 1 162.3 55.701 A 70.808 70.808 0 0 1 162.305 54.897 Q 162.31 54.468 162.32 53.986 A 148.88 148.88 0 0 1 162.35 52.751 Q 162.4 51.001 162.4 49.401 Q 162.4 45.501 161.95 41.651 A 38.401 38.401 0 0 0 161.521 38.854 A 31.216 31.216 0 0 0 160.4 34.601 A 15.59 15.59 0 0 0 159.346 32.186 A 11.47 11.47 0 0 0 157.3 29.451 A 6.659 6.659 0 0 0 154.893 27.929 A 7.582 7.582 0 0 0 152.3 27.501 Q 149.4 27.501 147.15 29.451 A 5.741 5.741 0 0 0 145.911 30.969 Q 144.9 32.752 144.9 35.501 Q 144.9 36.801 145.3 37.401 Q 145.7 38.001 146.8 38.101 A 12.686 12.686 0 0 1 146.956 38.12 Q 148.54 38.326 149.35 38.851 Q 149.855 39.177 150.307 39.698 A 6.753 6.753 0 0 1 150.9 40.501 A 14.247 14.247 0 0 1 151.759 42.133 Q 152.544 43.872 153.2 46.301 Q 154.2 50.001 154.85 54.101 Q 155.5 58.201 155.7 61.601 Q 155.953 64.448 156.827 66.155 A 5.099 5.099 0 0 0 158.05 67.751 A 6.847 6.847 0 0 0 159.971 68.907 Z M 69.171 68.787 A 21.367 21.367 0 0 0 74 69.301 Q 83.2 69.301 89.9 62.901 Q 92.602 60.341 93.383 58.489 A 3.601 3.601 0 0 0 93.7 57.101 A 2.933 2.933 0 0 0 93.695 56.916 A 2.195 2.195 0 0 0 93.05 55.451 A 2.143 2.143 0 0 0 92.221 54.929 A 2.517 2.517 0 0 0 91.4 54.801 Q 90.556 54.801 89.614 55.394 A 6.936 6.936 0 0 0 88.8 56.001 A 15.198 15.198 0 0 1 86.833 57.363 A 18.328 18.328 0 0 1 83.55 58.851 Q 80.5 59.901 77.6 59.901 A 14.45 14.45 0 0 1 75.31 59.726 A 10.473 10.473 0 0 1 69.75 57.101 A 9.325 9.325 0 0 1 67.189 53.201 A 11.515 11.515 0 0 1 66.6 49.701 A 12.689 12.689 0 0 0 67.68 50.388 Q 69.683 51.526 72.21 52.021 A 21.83 21.83 0 0 0 76.4 52.401 A 23.433 23.433 0 0 0 78.206 52.332 A 19.454 19.454 0 0 0 85.3 50.451 A 19.816 19.816 0 0 0 86.511 49.808 A 16.505 16.505 0 0 0 91.7 45.201 Q 94.1 41.901 94.1 38.001 A 12.631 12.631 0 0 0 94.068 37.097 A 9.494 9.494 0 0 0 90.5 30.151 A 11.47 11.47 0 0 0 89.286 29.281 Q 85.939 27.201 80.9 27.201 Q 74.6 27.201 69.35 30.651 Q 64.1 34.101 61 39.901 A 25.558 25.558 0 0 0 59.235 44.042 A 28.117 28.117 0 0 0 57.9 52.801 A 27.704 27.704 0 0 0 57.911 53.569 Q 57.985 56.228 58.575 58.468 A 14.29 14.29 0 0 0 62.15 64.951 Q 64.939 67.805 69.171 68.787 Z M 203.671 68.787 A 21.367 21.367 0 0 0 208.5 69.301 Q 217.7 69.301 224.4 62.901 Q 227.102 60.341 227.883 58.489 A 3.601 3.601 0 0 0 228.2 57.101 A 2.933 2.933 0 0 0 228.195 56.916 A 2.195 2.195 0 0 0 227.55 55.451 A 2.143 2.143 0 0 0 226.721 54.929 A 2.517 2.517 0 0 0 225.9 54.801 Q 225.056 54.801 224.114 55.394 A 6.936 6.936 0 0 0 223.3 56.001 A 15.198 15.198 0 0 1 221.333 57.363 A 18.328 18.328 0 0 1 218.05 58.851 Q 215 59.901 212.1 59.901 A 14.45 14.45 0 0 1 209.81 59.726 A 10.473 10.473 0 0 1 204.25 57.101 A 9.325 9.325 0 0 1 201.689 53.201 A 11.515 11.515 0 0 1 201.1 49.701 A 12.689 12.689 0 0 0 202.18 50.388 Q 204.183 51.526 206.71 52.021 A 21.83 21.83 0 0 0 210.9 52.401 A 23.433 23.433 0 0 0 212.706 52.332 A 19.454 19.454 0 0 0 219.8 50.451 A 19.816 19.816 0 0 0 221.011 49.808 A 16.505 16.505 0 0 0 226.2 45.201 Q 228.6 41.901 228.6 38.001 A 12.631 12.631 0 0 0 228.568 37.097 A 9.494 9.494 0 0 0 225 30.151 A 11.47 11.47 0 0 0 223.786 29.281 Q 220.439 27.201 215.4 27.201 Q 209.1 27.201 203.85 30.651 Q 198.6 34.101 195.5 39.901 A 25.558 25.558 0 0 0 193.735 44.042 A 28.117 28.117 0 0 0 192.4 52.801 A 27.704 27.704 0 0 0 192.411 53.569 Q 192.485 56.228 193.075 58.468 A 14.29 14.29 0 0 0 196.65 64.951 Q 199.439 67.805 203.671 68.787 Z M 104.1 67.401 A 4.134 4.134 0 0 0 105.131 68.25 Q 106.414 69.001 108.4 69.001 A 14.484 14.484 0 0 0 109.734 68.942 Q 112.2 68.713 113.75 67.601 A 12.253 12.253 0 0 0 113.978 67.433 Q 114.756 66.847 115.337 66.21 A 6.902 6.902 0 0 0 116.5 64.501 Q 117.288 62.827 117.3 62.026 A 1.644 1.644 0 0 0 117.3 62.001 A 2.462 2.462 0 0 0 117.29 61.77 Q 117.24 61.24 116.95 60.951 Q 116.71 60.71 116.304 60.446 A 8.195 8.195 0 0 0 115.9 60.201 A 19.477 19.477 0 0 1 114.485 59.306 Q 112.959 58.241 112.15 57.151 A 3.977 3.977 0 0 1 111.84 56.659 Q 111.261 55.579 111.081 53.822 A 16.958 16.958 0 0 1 111 52.101 A 25.484 25.484 0 0 1 111.001 51.965 Q 111.012 49.917 111.35 47.401 Q 111.7 44.801 112.1 41.901 Q 112.7 37.501 113.35 31.701 A 87.22 87.22 0 0 0 113.619 28.866 Q 114 24.049 114 18.001 A 132.237 132.237 0 0 0 113.998 17.315 Q 113.974 12.532 113.6 8.751 A 26.446 26.446 0 0 0 113.314 6.663 Q 113.087 5.402 112.749 4.352 A 11.271 11.271 0 0 0 111.9 2.351 A 5.798 5.798 0 0 0 111.581 1.837 Q 110.871 0.82 109.849 0.366 A 4.508 4.508 0 0 0 108 0.001 Q 106.4 0.001 104.7 0.851 A 11.883 11.883 0 0 0 103.644 1.446 A 9.584 9.584 0 0 0 101.85 2.901 A 5.947 5.947 0 0 0 101.739 3.02 Q 100.7 4.165 100.7 5.401 A 1.859 1.859 0 0 0 100.701 5.432 Q 100.716 6.335 101.6 8.301 A 26.919 26.919 0 0 1 103.636 13.703 A 35.389 35.389 0 0 1 104.65 19.751 A 166.332 166.332 0 0 1 104.809 21.786 A 148.653 148.653 0 0 1 105.2 32.401 Q 105.2 36.701 104.75 41.401 Q 104.3 46.101 103.7 50.401 Q 103.3 53.901 103 56.901 Q 102.803 58.869 102.736 60.364 A 31.957 31.957 0 0 0 102.7 61.801 A 20.487 20.487 0 0 0 102.72 62.726 Q 102.868 65.992 104.1 67.401 Z M 241.299 69.038 A 7.573 7.573 0 0 0 242.3 69.101 Q 245.8 69.101 247.85 66.701 A 8.244 8.244 0 0 0 249.562 63.392 A 10.967 10.967 0 0 0 249.9 60.601 Q 249.9 59.401 249.85 56.801 Q 249.8 54.201 249.7 51.701 A 35.895 35.895 0 0 1 249.974 48.138 Q 250.523 43.924 252.1 41.201 Q 254.3 37.401 257.2 37.401 A 3.821 3.821 0 0 1 259.293 37.995 A 4.644 4.644 0 0 1 260.4 39.001 A 1.611 1.611 0 0 0 260.62 39.241 A 1.134 1.134 0 0 0 261.1 39.501 A 4.231 4.231 0 0 0 261.273 39.54 Q 261.414 39.569 261.54 39.584 A 2.204 2.204 0 0 0 261.8 39.601 A 2.756 2.756 0 0 0 261.941 39.597 Q 263.205 39.532 264.445 38.306 A 9.276 9.276 0 0 0 265.35 37.251 A 10.214 10.214 0 0 0 265.712 36.732 A 8.148 8.148 0 0 0 267.1 32.201 A 6.378 6.378 0 0 0 266.942 30.73 A 3.871 3.871 0 0 0 265.3 28.301 Q 264.217 27.579 262.809 27.291 A 10.036 10.036 0 0 0 260.8 27.101 Q 256.8 27.101 254.15 29.451 A 14.009 14.009 0 0 0 254.034 29.555 Q 252.612 30.844 251.438 32.616 A 22.391 22.391 0 0 0 249.7 35.801 Q 249.7 33.663 249.273 31.984 A 9.232 9.232 0 0 0 248.35 29.651 Q 247.38 27.961 245.351 27.486 A 7.683 7.683 0 0 0 243.6 27.301 A 10.216 10.216 0 0 0 242.724 27.337 A 8.253 8.253 0 0 0 239 28.551 A 11.61 11.61 0 0 0 237.732 29.463 A 9.03 9.03 0 0 0 235.9 31.501 Q 235.277 32.463 235.007 33.33 A 4.266 4.266 0 0 0 234.8 34.601 A 2.438 2.438 0 0 0 234.849 35.1 A 1.634 1.634 0 0 0 235.35 36.001 Q 235.9 36.501 236.6 36.801 Q 238.2 37.301 239.3 38.251 A 3.16 3.16 0 0 1 239.509 38.448 Q 240.166 39.129 240.649 40.391 A 12.483 12.483 0 0 1 241.05 41.651 Q 241.7 44.101 241.7 49.401 A 46.511 46.511 0 0 1 241.641 51.734 A 53.596 53.596 0 0 1 240.95 57.951 Q 240.2 62.401 239.1 66.701 A 2.987 2.987 0 0 0 239.049 66.984 Q 238.907 68.062 239.75 68.551 A 3.43 3.43 0 0 0 240.369 68.828 Q 240.79 68.97 241.299 69.038 Z M 19.3 58.101 Q 23.8 58.101 28.3 56.701 Q 32.8 55.301 36.45 52.501 A 20.466 20.466 0 0 0 42.153 45.638 A 23.667 23.667 0 0 0 42.3 45.351 A 19.603 19.603 0 0 0 44.017 40.235 Q 44.462 37.953 44.497 35.345 A 33.3 33.3 0 0 0 44.5 34.901 A 29.095 29.095 0 0 0 44.121 30.063 Q 43.488 26.313 41.8 23.501 Q 39.1 19.001 34.6 16.801 A 21.824 21.824 0 0 0 26.628 14.678 A 26.183 26.183 0 0 0 24.6 14.601 Q 21.6 14.601 18.65 15.101 Q 15.985 15.552 14.341 16.004 A 19.609 19.609 0 0 0 14 16.101 Q 13.9 20.701 13.45 25.051 Q 13 29.401 12.4 33.501 Q 11.8 37.801 11.45 41.901 Q 11.1 46.001 11.1 50.001 A 18.998 18.998 0 0 0 11.213 52.155 Q 11.581 55.364 13.15 56.551 A 6.576 6.576 0 0 0 15.065 57.525 Q 15.974 57.826 17.092 57.97 A 17.385 17.385 0 0 0 19.3 58.101 Z M 127.6 67.351 A 5.305 5.305 0 0 0 128.115 67.79 Q 129.731 69.001 132.3 69.001 A 14.091 14.091 0 0 0 133.332 68.964 Q 134.429 68.883 135.355 68.625 A 6.904 6.904 0 0 0 137.55 67.601 A 12.253 12.253 0 0 0 137.778 67.433 Q 138.556 66.847 139.137 66.21 A 6.902 6.902 0 0 0 140.3 64.501 A 16.444 16.444 0 0 0 140.639 63.734 Q 140.939 63.002 141.044 62.489 A 2.472 2.472 0 0 0 141.1 62.001 A 2.125 2.125 0 0 0 141.097 61.881 Q 141.065 61.311 140.722 60.914 A 1.897 1.897 0 0 0 140.2 60.501 A 18.579 18.579 0 0 1 139.27 60.003 Q 138.536 59.583 137.94 59.141 A 8.99 8.99 0 0 1 136.8 58.151 A 3.716 3.716 0 0 1 136.124 57.158 Q 135.6 56.052 135.6 54.401 Q 135.6 53.001 135.8 51.401 Q 136 49.801 136.4 47.901 Q 136.9 45.301 137.4 42.251 Q 137.9 39.201 137.9 36.001 Q 137.9 33.901 137.5 31.901 Q 137.1 29.901 135.95 28.601 A 3.355 3.355 0 0 0 134.932 27.825 Q 134.37 27.543 133.649 27.412 A 7.59 7.59 0 0 0 132.3 27.301 A 9.046 9.046 0 0 0 131.23 27.364 A 9.507 9.507 0 0 0 127.85 28.451 A 13.16 13.16 0 0 0 126.3 29.418 A 10.085 10.085 0 0 0 124.4 31.201 A 8.183 8.183 0 0 0 123.874 31.921 Q 123.539 32.44 123.349 32.937 A 3.527 3.527 0 0 0 123.1 34.201 A 3.029 3.029 0 0 0 123.1 34.22 Q 123.108 35.407 124.05 36.151 Q 125 36.901 126.3 37.601 Q 128 38.401 128.5 40.051 Q 129 41.701 129 43.501 A 28.635 28.635 0 0 1 128.965 44.939 A 24.4 24.4 0 0 1 128.55 48.401 Q 128.1 50.701 127.4 52.901 Q 126.8 55.001 126.35 57.201 Q 125.9 59.401 125.9 61.701 Q 125.9 64.138 126.532 65.703 A 4.716 4.716 0 0 0 127.6 67.351 Z M 132.2 18.301 Q 129.4 18.201 127.7 16.601 A 5.219 5.219 0 0 1 126.201 13.941 A 7.936 7.936 0 0 1 126 12.101 A 8.133 8.133 0 0 1 126.444 9.628 A 6.68 6.68 0 0 1 128.1 7.051 Q 130.003 5.196 132.9 5.196 A 9.299 9.299 0 0 1 133.2 5.201 Q 136.1 5.301 137.75 6.901 A 4.968 4.968 0 0 1 139.138 9.449 Q 139.306 10.199 139.306 11.073 A 9.494 9.494 0 0 1 139.3 11.401 A 8.091 8.091 0 0 1 138.84 13.904 A 6.787 6.787 0 0 1 137.3 16.351 A 6.33 6.33 0 0 1 133.741 18.175 A 9.061 9.061 0 0 1 132.2 18.301 Z M 75.5 45.801 A 14.298 14.298 0 0 0 78.13 45.572 Q 80.038 45.215 81.5 44.301 Q 83.9 42.801 83.9 40.501 Q 83.9 38.601 82.3 37.551 A 5.715 5.715 0 0 0 80.737 36.851 Q 80.014 36.643 79.149 36.558 A 12.831 12.831 0 0 0 77.9 36.501 A 11.818 11.818 0 0 0 74.25 37.047 A 10.264 10.264 0 0 0 71.45 38.451 A 10.47 10.47 0 0 0 67.868 42.947 A 13.189 13.189 0 0 0 67.5 43.901 A 8.705 8.705 0 0 0 68.878 44.611 Q 69.586 44.905 70.424 45.132 A 16.679 16.679 0 0 0 71.1 45.301 Q 73.3 45.801 75.5 45.801 Z M 210 45.801 A 14.298 14.298 0 0 0 212.63 45.572 Q 214.538 45.215 216 44.301 Q 218.4 42.801 218.4 40.501 Q 218.4 38.601 216.8 37.551 A 5.715 5.715 0 0 0 215.237 36.851 Q 214.514 36.643 213.649 36.558 A 12.831 12.831 0 0 0 212.4 36.501 A 11.818 11.818 0 0 0 208.75 37.047 A 10.264 10.264 0 0 0 205.95 38.451 A 10.47 10.47 0 0 0 202.368 42.947 A 13.189 13.189 0 0 0 202 43.901 A 8.705 8.705 0 0 0 203.378 44.611 Q 204.086 44.905 204.924 45.132 A 16.679 16.679 0 0 0 205.6 45.301 Q 207.8 45.801 210 45.801 Z" vector-effect="non-scaling-stroke"/></g></svg>